<?xml version="1.0" encoding="UTF-8" standalone="no"?>
<!-- Created with Inkscape (http://www.inkscape.org/) -->

<svg
   xmlns:dc="http://purl.org/dc/elements/1.1/"
   xmlns:cc="http://creativecommons.org/ns#"
   xmlns:rdf="http://www.w3.org/1999/02/22-rdf-syntax-ns#"
   xmlns:svg="http://www.w3.org/2000/svg"
   xmlns="http://www.w3.org/2000/svg"
   version="1.1"
   width="300"
   height="300"
   id="svg2">
  <defs
     id="defs4" />
  <metadata
     id="metadata7">
    <rdf:RDF>
      <cc:Work
         rdf:about="">
        <dc:format>image/svg+xml</dc:format>
        <dc:type
           rdf:resource="http://purl.org/dc/dcmitype/StillImage" />
        <dc:title></dc:title>
      </cc:Work>
    </rdf:RDF>
  </metadata>
  <path
     d="m 149.9998994492525,6.499999999999976 c -15.26764162014,0 -27.6397540268073,12.374030977365695 -27.6397540268073,27.639752214174873 0,9.54107665414649 4.8521349817794,17.96293436697853 12.2028427506281,22.93866268224006 0.8106897727281,-4.01982755359163 2.3867635782523,-7.57560509934577 4.5343805212722,-10.33573570729296 -3.5190143395371,-3.05719890464708 -5.7346654188055,-7.56943207899048 -5.7346654188055,-12.6029269749471 0,-9.20433084113034 7.4317022267893,-16.6705375327571 16.6371961737125,-16.6705375327571 9.2054838767432,0 16.6705284695951,7.46620669162676 16.6705284695951,16.6705375327571 0,6.31184382904326 -3.5264562025755,11.77329720762799 -8.702015156216,14.60339240533451 -0.012990532232,0.006948424217 -0.020442465451,0.0262932400451 -0.033231594082,0.0333423660626 -2.362423953132,1.28348069682735 -5.0584629003103,2.03380678943201 -7.9351810174964,2.03380678943201 -0.4854028175625,0 -0.9589631034155,-0.059343570887 -1.4336613196114,-0.10002709818778 -2.4226134191411,1.59354456084941 -4.1629520012321,5.01420043102882 -4.5010381552097,10.43575676337273 1.9141700296818,0.42029004053911 3.8943299490668,0.6668221458018 5.9346994748211,0.6668221458018 3.5913685830162,0 7.0186033018059,-0.7186432922102 10.16902891207,-1.96712205730681 0.1997420207948,-0.079121404456 0.4028474817179,-0.14967107167476 0.6001424487666,-0.23338749927616 0.270897912851,-0.11470136452013 0.5337497518622,-0.24374467943175 0.8001865749621,-0.36675293545449 0.4140153113656,-0.19185505579924 0.8311423083589,-0.38852567168643 1.2336272635959,-0.60013842069462 0.04420809031,-0.0232721860377 0.089121093221,-0.043180931947 0.1333392537103,-0.0666746619452 0.048941074921,-0.0260012048244 0.08469021401,-0.0737338581427 0.1333896046104,-0.10002709818779 0.030714049076,-0.016555375961 0.069383540372,-0.0166862883013 0.100097589448,-0.0333423660626 0.3634730778204,-0.19819926921496 0.713321202067,-0.41976639117782 1.0669053631029,-0.63348280079321 0.4301880204856,-0.26000902719008 0.85176603705,-0.51825879392979 1.2669796998385,-0.80018456092616 0.002014036,0.0106743908264 -0.002014036,0.0226579050561 0,0.0333423660626 7.339972956942,-4.97909779749785 12.1694802442053,-13.38114041709482 12.1694802442053,-22.90532132319544 C 177.673076403563,18.87403500543763 165.2676216308331,6.500004028071954 149.9999800106931,6.500004028071954 z"
     id="path3802"
     style="fill:#ebebeb;fill-opacity:1;stroke:#000000;stroke-width:3;stroke-linecap:round;stroke-linejoin:round;stroke-miterlimit:4;stroke-dasharray:none" />
  <path
     d="m 149.9998994492525,64.41344943707275 c -2.0410039470958,0 -4.019975585238,0.247463596915 -5.9347095450011,0.66682315281979 0.3352765737506,5.37632007665387 2.0432193867014,8.79205364283706 4.4343735634446,10.40241439731014 0.4961074189289,-0.0444900553502 0.9924363818184,-0.10002709818777 1.5003359815565,-0.10002709818777 1.6306340408993,0 3.211370339775,0.26343389541657 4.7010822814052,0.70016249782846 1.1383935710999,0.33372878708066 2.2107972524964,0.74435145479582 3.2340987360913,1.30030091852301 0.034540717485,0.018569411966 0.065556871962,0.0478736358386 0.1000975894479,0.0666746619451 0.5125923036297,0.28323791145364 1.022566360453,0.5997184941876 1.5003561219166,0.93354999710452 0.4750607426768,0.33191011256821 0.9298703533234,0.68855560833164 1.3669765874862,1.0669134192469 0.011782110629,0.0101306011051 0.021751588854,0.0231513438773 0.033231594082,0.0333423660626 3.5117638099191,3.05675178865398 5.7346654188055,7.55062198972182 5.7346654188055,12.56958561590248 0,5.03361775215295 -2.2391045285465,9.54580460366822 -5.7679977146881,12.60292999600111 2.1572238947637,2.7529656748595 3.780980002706,6.282674545583 4.6010853937575,10.3023983763204 7.3399024656819,-4.9800564786363 12.1694802442054,-13.3811444451669 12.1694802442054,-22.90532837232159 0,-9.52418090610063 -4.8295173574434,-17.90410336825481 -12.1694802442054,-22.87197694309688 -0.013191935833,-0.008861758422 -0.02034176365,-0.0245611690808 -0.033231594082,-0.0333423660626 -0.400450778872,-0.26981033340833 -0.8160269681414,-0.52096163024848 -1.2336272635959,-0.76684521591754 -0.4308023014671,-0.25366682781038 -0.8539311257553,-0.50386548562014 -1.300301925541,-0.733503856873 -0.8927214592114,-0.45927472846968 -1.8286439907298,-0.86172443807659 -2.7672955410349,-1.23361920745184 0.00201403601,-0.0209359042719 -0.002014036,-0.0456481260531 0,-0.0666746619452 -3.1490157850605,-1.24394919812138 -6.5796240141586,-1.93378271229821 -10.16902891207,-1.93378271229821 z m -15.4369112761792,4.73443371062979 c -7.3507077688487,4.96449905751574 -12.2028427506281,13.36424466904897 -12.2028427506281,22.90531930915947 0,9.55096758496698 4.8378957472241,17.96396857446709 12.2028427506281,22.93865764715009 0.002014036,-0.010674390827 -0.00201403601,-0.022657905056 0,-0.033231594082 0.830407185217,0.5638495199567 1.6776617816157,1.0931583224279 2.5672514148394,1.5670307838617 0.4447897815218,0.2369311956269 0.9079576415891,0.4540946278649 1.3669866576662,0.6668171107118 0.459029016077,0.2127124126669 0.9274535101174,0.4128169599426 1.4003290237288,0.6001424487666 -0.001007018,0.010674390826 9.969478225e-4,0.022657905056 0,0.033231594082 3.1288653548306,1.2316031574108 6.5369768017529,1.9004242339475 10.1023441799448,1.9004242339475 2.0523530399839,0 4.0423112445333,-0.2415936889784 5.9680519110636,-0.6668070405317 -0.345568297736,-5.4383000206714 -2.0914051981207,-8.8594120700059 -4.5343905914523,-10.4357577703907 -0.4748794794363,0.040683527301 -0.9482585020489,0.1000975894479 -1.4336613196113,0.1000975894479 -9.2054939469232,0 -16.6371961737125,-7.4662127337348 -16.6371961737125,-16.67053652573885 0,-5.03349489595665 2.2156510792684,-9.54572807030003 5.7346654188055,-12.60292798196511 -2.1362174992317,-2.75135444605549 -3.719612325634,-6.30542207524134 -4.5343805212722,-10.30239233421237 z"
     id="path3798"
     style="fill:#ebebeb;fill-opacity:1;stroke:#000000;stroke-width:3;stroke-linecap:round;stroke-linejoin:round;stroke-miterlimit:4;stroke-dasharray:none" />
  <path
     d="m 265.8601302164734,122.4269157007497 c -9.5422911178575,0 -17.962300952655,4.8197291424591 -22.9386717454021,12.1695104547455 4.0150814777459,0.8184538815274 7.5791498027146,2.416923767427 10.335730672203,4.5677128171548 3.057588620614,-3.518561181436 7.5688077278289,-5.7346553486255 12.6029410731991,-5.7346553486255 9.2054637363831,0 16.670518399415,7.4328703676722 16.670518399415,16.6372062438925 0,9.2043258060403 -7.4650546630318,16.6705183994151 -16.670518399415,16.6705183994151 -5.0341333453702,0 -9.5453524525851,-2.2390642478264 -12.6029410731991,-5.7679977146881 -0.025779660864,-0.029807732874 -0.041086334502,-0.070088452974 -0.066664591765,-0.100097589448 -0.3521239849323,-0.4122429596812 -0.6890621383869,-0.8547971612374 -1.0002307011577,-1.300311995721 -0.3379351012771,-0.4838117291185 -0.647522645784,-0.9809060256899 -0.9335560392125,-1.5003460517366 -0.274090159919,-0.497779068813 -0.543779651167,-1.0065547742133 -0.7668442088996,-1.5336783476191 -0.013695444834,-0.03232527788 -0.019838254649,-0.067470206167 -0.033231594082,-0.100097589448 -0.1934985091793,-0.4665816510957 -0.3482973165228,-0.9475837999872 -0.5001052803989,-1.4336713897913 -0.028498609471,-0.091135129226 -0.073109506981,-0.1749190270333 -0.099996887648,-0.2667288583207 0.00402807201,-0.010070180025 -0.00402807201,-0.023664923059 0,-0.033332295883 -0.4294831078839,-1.4780607433414 -0.6668171107118,-3.0181537956363 -0.6668171107118,-4.6343874791 0,-0.4965907875701 0.057500727943,-0.9816512190117 0.099996887648,-1.467023826034 -1.5973420257368,-2.4155139422235 -5.0244659725462,-4.130213845971 -10.4357678405707,-4.467705859327 -0.4205911389219,1.9144922754425 -0.6668070405318,3.8939774927659 -0.6668070405318,5.9347296853611 0,3.577894682143 0.6937145615585,6.9950189401876 1.9337766701902,10.1356764758275 0.021550185253,-0.002014036 0.045315810112,0.00201403601 0.066664591765,0 0.7437734264624,1.8773131707903 1.6506636289689,3.684467397347 2.7672955410349,5.3345570260544 -0.010674390826,0.00201403601 -0.022758606856,-0.002014036 -0.033231594082,0 4.9763506523871,7.3610095630142 13.3963906977246,12.2028427506279 22.9386616752221,12.2028427506279 15.2676315499599,0 27.6397439566272,-12.4073681069345 27.6397439566272,-27.6730762525098 0,-15.2657282859352 -12.3721124066674,-27.6397741671672 -27.6397439566272,-27.6397741671672 z"
     id="path3841"
     style="fill:#ebebeb;fill-opacity:1;stroke:#000000;stroke-width:3;stroke-linecap:round;stroke-linejoin:round;stroke-miterlimit:4;stroke-dasharray:none" />
  <path
     d="m 207.9466860158943,122.4269157007497 c -9.5255746190161,0 -17.9589777932468,4.8080678739902 -22.9386516050421,12.1361680886828 0.010674390827,0.002014036 0.022758606856,-0.002014036 0.033231594082,0 -0.2791655306515,0.4125148545419 -0.5465288103138,0.8361471878313 -0.8001966451422,1.2669494892984 -0.7610035044851,1.2923968342215 -1.409291483951,2.6596251762083 -1.9671089660727,4.067617606936 -0.021348781653,-0.002014036 -0.045215108312,0.002014036 -0.066664591765,0 -1.248631831833,3.1467902752751 -1.9337766701902,6.5781034169749 -1.9337766701902,10.1690389822501 0,2.0400976308936 0.213135360228,4.019582848217 0.6334848148293,5.934699474821 5.3957535100659,-0.3301911328379 8.8220315617533,-2.038234647589 10.4357477002107,-4.4343735634445 -0.04451019571,-0.4961476996491 -0.066664591765,-0.9926478555989 -0.066664591765,-1.5003259113765 0,-1.6299391984775 0.2302949469905,-3.2139583760414 0.6668171107118,-4.7011024217652 0.1698033755807,-0.5785419126131 0.3709451513989,-1.1500749799288 0.6001323785866,-1.7004103182922 0.013494041233,-0.03232527788 0.019737552849,-0.067772311568 0.033332295883,-0.099996887648 0.2230544875525,-0.5261870466635 0.4927439788006,-1.0036444921862 0.7668341387195,-1.5003460517365 0.2400730917947,-0.4392813930482 0.4894711702925,-0.8862362632755 0.7668442088996,-1.300301925541 0.039475105698,-0.058306342345 0.093149165231,-0.1089996285902 0.1333694642504,-0.166701760133 0.1042364334382,-0.1514957882954 0.2242528389755,-0.2856809371277 0.3334135904459,-0.4334306184536 0.1882821559264,-0.2525802553858 0.3647620608636,-0.5256130464021 0.566790012524,-0.7668542790797 0.071699681778,-0.085999337413 0.1266929348938,-0.1822601882715 0.2000441261955,-0.2667288583207 0.012386321431,0.010070180025 0.021046676252,0.023765624859 0.033231594082,0.033231594082 3.0572764450333,-3.5060540178449 7.5457671559319,-5.7346553486255 12.5695886369565,-5.7346553486255 5.0148690909824,0 9.5132688590255,2.2048457761015 12.5695785667764,5.7013129825628 2.7601255728573,-2.1476169430199 6.3159061396654,-3.723680678364 10.335730672203,-4.5343704510922 -4.9567440118785,-7.3521880853125 -13.363028191302,-12.1695104547457 -22.9053092389793,-12.1695104547457 z m 26.9395844798528,21.7050444818062 c -5.3620486175225,0.3420940856274 -8.7663535363954,2.04268566716 -10.3690730382655,4.4343735634445 0.04451019571,0.4960973487489 0.1000975894479,0.9925270134387 0.1000975894479,1.5003561219166 0,9.2043258060403 -7.4650445928518,16.6705183994151 -16.6705486099551,16.6705183994151 -5.0320085373849,0 -9.5454028034852,-2.2416321437328 -12.602920932839,-5.7679977146881 -2.7629552934442,2.1537798931952 -6.3442738367956,3.7186355181715 -10.3690730382655,4.5343905914523 4.9743466865622,7.3741813584868 13.4196125328621,12.2361649763305 22.9720543921848,12.2361649763305 9.5422911178574,0 17.9485652271008,-4.8408865906915 22.9052991687993,-12.202842750628 -0.021348781653,-0.00402807201 -0.045315810112,0.00402807201 -0.066664591765,0 0.2543928877902,-0.3746610478281 0.5302453292135,-0.7467038488497 0.7668442088997,-1.133590095228 0.025477555463,-0.042093352504 0.041388439902,-0.091034427425 0.066664591765,-0.1333593940704 0.2081405509357,-0.344369946313 0.4067245010274,-0.6798076429439 0.6001323785866,-1.0335629970403 0.048236162319,-0.089121093221 0.086100039213,-0.1770539051985 0.1333795344304,-0.2667389285007 0.236921125447,-0.4447998517018 0.4540946278649,-0.9079576415891 0.6668070405318,-1.3669866576662 0.2127124126669,-0.459018945897 0.4128270301226,-0.9274434399374 0.6001424487666,-1.4003189535488 1.2358527733813,-3.1424802382243 1.9337766701902,-6.5556469155192 1.9337766701902,-10.1356764758274 0,-2.0407521925952 -0.2482802885151,-4.019995725598 -0.6668070405318,-5.9347296853611 z"
     id="path3839"
     style="fill:#ebebeb;fill-opacity:1;stroke:#000000;stroke-width:3;stroke-linecap:round;stroke-linejoin:round;stroke-miterlimit:4;stroke-dasharray:none" />
  <path
     d="m 34.13967371712158,122.3602410388045 c -15.26764665522996,0 -27.639749293822667,12.4073580367547 -27.639749293822667,27.6730863226899 0,15.2657182157552 12.372102638592707,27.6064116607446 27.639749293822667,27.6064116607446 9.52538026454164,0 17.92559111839202,-4.8082994881307 22.90531628810544,-12.1361378781427 -4.02202788792708,-0.8205686193327 -7.58211144265987,-2.4086360092665 -10.33573268623895,-4.5677430276949 -3.05713646953093,3.5009585067523 -7.54998555434431,5.7013431931029 -12.56958360186651,5.7013431931029 -9.20549293990527,0 -16.67053652573916,-7.3995481419696 -16.67053652573916,-16.6038739480099 0,-9.2043258060404 7.4650435858339,-16.6705284695951 16.67053652573916,-16.6705284695951 7.62254019440602,0 14.01743884022302,5.1163664354539 16.00371337291927,12.1028156524404 0.4124846440018,1.4508410467338 0.66682315281983,2.9849826226341 0.66682315281983,4.5677128171548 0,0.4853323263022 -0.059343570887,0.9590335946756 -0.10002709818778,1.4336713897915 1.57960944573091,2.4371748994571 5.00565386924165,4.1894164343377 10.43575575635473,4.5343905914522 0.42516199363518,-1.9243006307866 0.66682113878381,-3.9159606957603 0.66682113878381,-5.9680619812437 0,-3.572255381329 -0.69743851413164,-6.9990872929176 -1.93378170528023,-10.1356764758274 -0.18731843969802,-0.4728755136114 -0.3874330571537,-0.9413000076518 -0.60013942771262,-1.4003290237288 -0.63812313974871,-1.3770769780513 -1.38807864972847,-2.6886172245001 -2.23385091562753,-3.9342380725058 0.0106743908264,-0.002014036 0.0226579050561,0.002014036 0.0333423660626,0 -4.97635468045909,-7.3609994928341 -13.39638062754461,-12.2028427506277 -22.93865764715006,-12.2028427506277 z"
     id="path3820"
     style="fill:#ebebeb;fill-opacity:1;stroke:#000000;stroke-width:3;stroke-linecap:round;stroke-linejoin:round;stroke-miterlimit:4;stroke-dasharray:none" />
  <path
     d="m 92.0531118755927,122.3602410388045 c -9.54227399855147,0 -17.94018885135618,4.8418432577939 -22.90531326705144,12.202842750628 0.0213185711128,0.00402807201 0.0454064417325,-0.00402807201 0.0666746619452,0 -1.11663392610207,1.6500896287075 -2.02351808650053,3.4572639956241 -2.76730863226902,5.3345670962345 -0.0314088914978,-0.00302105401 -0.0684168030895,0.00302105401 -0.10002709818778,0 -1.23172097851712,3.1350383751859 -1.90044034623564,6.5655459024837 -1.90044034623564,10.1356764758274 0,2.0513460219814 0.20982629907179,4.0444259823385 0.6334807867572,5.9680619812436 5.36707061630091,-0.3295265009562 8.78007214264338,-2.023320710972 10.40241439731017,-4.4010311973819 -0.0484778466401,-0.5174159198617 -0.10002709818778,-1.0367149633881 -0.10002709818778,-1.5670307838617 0,-9.2043258060404 7.46504358583388,-16.6705284695951 16.67053551872108,-16.6705284695951 5.01738764300673,0 9.5131802414414,2.2261341366744 12.5695805808125,5.7346654188055 2.7548286581641,-2.1625510199969 6.3094612244493,-3.7462983027 10.3357306722029,-4.5677430276949 -4.9796738117953,-7.3400031674821 -13.3799360235638,-12.1694802442054 -22.9053112530154,-12.1694802442054 z m 27.00627021899609,21.6717021157437 c -5.448249358536,0.3475219126608 -8.865484388561,2.1159965777415 -10.4357577703907,4.5677228873348 0.0405828255,0.4748492688963 0.1000975894479,0.9483289933091 0.1000975894479,1.4336613196114 0,9.2043258060402 -7.4650445928519,16.6038739480099 -16.67053853977511,16.6038739480099 -5.01739066406067,0 -9.47918230665917,-2.2030633542373 -12.5362432498399,-5.701343193103 -2.75954049539773,2.1591070184284 -6.31034437923756,3.7471744083623 -10.33573268623894,4.5677430276949 4.96850094705765,7.327838390012 13.34659365750126,12.1361378781428 22.87197593607888,12.1361378781428 9.54227097749747,0 17.96236137373506,-4.8270703036972 22.93865160504207,-12.1694802442054 -0.010674390827,-0.002014036 -0.022657905056,0.002014036 -0.033231594082,0 0.5638595901368,-0.8304071852171 1.0931583224279,-1.6776718517957 1.5670307838618,-2.5672614850194 0.2369311956269,-0.4447998517018 0.4541046980449,-0.9079677117692 0.6668271808918,-1.3669967278463 0.2127124126669,-0.4590290160771 0.4128169599426,-0.9274434399373 0.6001424487666,-1.4003189535487 0.010674390827,9.969478225e-4 0.022657905056,-9.969478225e-4 0.033231594082,0 1.2314823152505,-3.1259651429834 1.9004343041276,-6.5374601703941 1.9004343041276,-10.1023542501248 0,-2.0634403081915 -0.2370822483273,-4.065966097412 -0.6668171107118,-6.0013842069463 z"
     id="path3818"
     style="fill:#ebebeb;fill-opacity:1;stroke:#000000;stroke-width:3;stroke-linecap:round;stroke-linejoin:round;stroke-miterlimit:4;stroke-dasharray:none" />
  <path
     d="m 149.9998994492525,238.1871495803229 c -3.5673109229367,0 -6.9724718071117,0.7043486716648 -10.1023441799448,1.9337766701902 0.00302105401,0.031620365278 -0.00302105401,0.06857792597 0,0.099996887648 -1.8773031006104,0.7438036370025 -3.684477467527,1.650693839509 -5.3345670962344,2.767325751575 -0.00402807201,-0.020845272652 0.00402807201,-0.045819319113 0,-0.066664591765 -7.3507077688487,4.9645081206777 -12.2028427506281,13.364246683085 -12.2028427506281,22.9053092389794 0,15.2657182157553 12.3721124066673,27.67310646305 27.6397540268073,27.67310646305 15.2676315499599,0 27.6730863226898,-12.4073882472946 27.6730863226898,-27.67310646305 0,-9.5241647938125 -4.8295072872633,-17.9040751717507 -12.1694802442052,-22.8719568027368 -0.8189976712487,4.0116576165374 -2.4184342944308,7.5477006304967 -4.567753097875,10.3023883061404 3.5117638099191,3.0567527956721 5.7346754889856,7.550631052884 5.7346754889856,12.5695684965964 0,9.2043358762205 -7.465044592852,16.6705586801352 -16.6705284695951,16.6705586801352 -9.2054939469233,0 -16.6371961737126,-7.4662228039148 -16.6371961737126,-16.6705586801352 0,-9.2043157358602 7.4317022267893,-16.670518399415 16.6371961737126,-16.670518399415 0.5303661713738,0 1.0492825480593,0.051559321728 1.5670207136817,0.099996887648 2.381376031939,-1.6204027379939 4.0711522401246,-5.0301254137203 4.401031197382,-10.4024254745081 -1.9257406665302,-0.4239142983301 -3.9156988710798,-0.6668171107118 -5.9680519110637,-0.6668171107118 z"
     id="path3829"
     style="fill:#ebebeb;fill-opacity:1;stroke:#000000;stroke-width:3;stroke-linecap:round;stroke-linejoin:round;stroke-miterlimit:4;stroke-dasharray:none" />
  <path
     d="m 149.9998994492525,180.2737053797437 c -2.0410039470958,0 -4.019975585238,0.247444463573 -5.9347095450011,0.6668070405318 0.333826467827,5.3531465783805 2.0259691683186,8.7502915992556 4.4010110570219,10.3690730382656 0.5067314588552,-0.046423529915 1.0146713393135,-0.066664591765 1.5336984879792,-0.066664591765 3.5459722114638,0 6.8328084803457,1.1123520855555 9.5355340270608,3.0007021736531 0.4894409597523,0.3419531031071 0.9512594156963,0.7090615159165 1.4003189535487,1.1002477291655 3.5090750718525,3.0566823044118 5.7346754889855,7.5528464924894 5.7346754889855,12.5695785667765 0,5.0167522146471 -2.2262650490147,9.513017104525 -5.7346754889855,12.5695987071365 2.1508091900878,2.7506898141738 3.7492790759875,6.3240126345854 4.5677530978749,10.3357206020229 7.3399024656819,-4.9800665488162 12.1694802442054,-13.3811243048068 12.1694802442054,-22.9053193091594 0,-9.5241647938126 -4.8295072872633,-17.9040953121108 -12.1694802442054,-22.8719769430969 -0.012990532232,-0.00906316202 -0.02034176365,-0.024470537461 -0.033231594082,-0.033231594082 -0.4004407086919,-0.2698103334084 -0.8160370383214,-0.5209606232305 -1.2336272635958,-0.7668542790796 -1.2923766938614,-0.7610035044851 -2.6596151060282,-1.409291483951 -4.067597466576,-1.9671089660728 0.002014036,-0.021046676252 -0.00201403601,-0.045517213713 0,-0.066664591765 -3.150425610264,-1.2452281109847 -6.5776603290537,-1.9337666000102 -10.16902891207,-1.9337666000102 z m -15.4702637124219,4.7677569433504 c -7.3292582853955,4.9678111397259 -12.1694903143854,13.3474294824433 -12.1694903143854,22.8719769430969 0,9.550971613039 4.8378957472241,17.9639826727191 12.2028427506281,22.938661675222 0.002014036,-0.010674390826 -0.00201403601,-0.022758606856 0,-0.033231594082 1.6608345107941,1.1276889697335 3.4430650417889,2.0847185985841 5.3345670962344,2.8340104837002 -0.001007018,0.010674390826 9.969478225e-4,0.022657905056 0,0.033231594082 3.1288653548306,1.231633367951 6.5369768017529,1.9004443743077 10.1023441799448,1.9004443743077 2.0523530399839,0 4.0423112445333,-0.2416238995185 5.9680519110636,-0.6668372510719 -0.339908856562,-5.4297504378302 -2.07095266249,-8.8474789066763 -4.5010482253897,-10.4357376300307 -0.4856142913429,0.042697563306 -0.9703625472037,0.099996887648 -1.467003685674,0.099996887648 -9.2054939469232,0 -16.6371961737125,-7.4661925933748 -16.6371961737125,-16.6705385397751 0,-5.0313841862234 2.2182290453549,-9.5457955405062 5.7346654188056,-12.6029209328391 -2.1369425521935,-2.7463596367631 -3.7493294268876,-6.2771661571094 -4.5677329575149,-10.2690560102578 z"
     id="path3831"
     style="fill:#ebebeb;fill-opacity:1;stroke:#000000;stroke-width:3;stroke-linecap:round;stroke-linejoin:round;stroke-miterlimit:4;stroke-dasharray:none" />
  <path
     d="m 150.0332317451351,122.3602410388045 c -3.5805028587694,0 -6.9930955358028,0.6978030546486 -10.1356764758274,1.9337867403703 0.002014036,0.021046676252 -0.002014036,0.045819319114 0,0.066664591765 -1.8773031006104,0.7437834966425 -3.684477467527,1.6506736991489 -5.3345670962344,2.7672955410349 -0.00402807201,-0.021248079853 0.00402807201,-0.045315810112 0,-0.066664591765 -2.9452557624358,1.9832011137527 -5.4786814425714,4.5291339574793 -7.4684080329803,7.4683878926202 4.0117079674375,0.8177691092857 7.5801064698169,2.3863406306912 10.335730672203,4.5343905914523 3.0568635676522,-3.5172419878527 7.5709224656341,-5.7346553486256 12.6029209328391,-5.7346553486256 0.5078995997381,0 1.0040271590271,0.055688095538 1.5003561219166,0.100097589448 2.3952628101933,-1.6081473289036 4.0986740421329,-5.0202767776559 4.4343634932644,-10.4024254745082 -1.9148749422834,-0.4185771029168 -3.8937156680852,-0.6668171107118 -5.934719615181,-0.6668171107118 z m 15.4702737826019,4.7010923515852 c -0.8155939504004,4.0240137274281 -2.4145774154813,7.5730170630794 -4.567753097875,10.335720602023 3.5289233966816,3.0480924408505 5.7680279252282,7.5359890111276 5.7680279252282,12.5695987071365 0,0.5303057502936 -0.051559321728,1.0493429691394 -0.1000975894479,1.5670307838617 1.6019440980082,2.404779130317 5.0088874040477,4.1301232143509 10.4024053341481,4.4677058593271 0.4321114248704,-1.9447430962374 0.6668372510718,-3.96024934751 0.6668372510718,-6.0347366431888 0,-3.5519236878586 -0.6495971028691,-6.9508914113183 -1.867102008245,-10.0690018138823 -0.03222457608,0.00302105401 -0.067973715168,-0.00302105401 -0.099996887648,0 -0.749291885116,-1.8915020544455 -1.7062913034266,-3.6737325854403 -2.8339802731601,-5.3345670962344 0.032023172479,-0.00604210802 0.067973715168,0.00604210801 0.099996887648,0 -1.9875615017034,-2.9553762933608 -4.5144415648229,-5.5100399831691 -7.4683979628002,-7.5017503990428 z m -42.4765329244,16.9706097641585 c -0.4200876299206,1.9139887664412 -0.6668271808918,3.8943601596068 -0.6668271808918,5.934709545001 0,3.5871793881259 0.687491190303,7.0231550231773 1.9337867403703,10.16902891207 0.021449483453,-0.002014036 0.045315810112,0.00201403601 0.066664591765,0 0.5578577628419,1.4079823605478 1.2061054615877,2.7752006323546 1.9671190362528,4.067617606936 0.1956434575246,0.3322655899231 0.4227662978072,0.6452971359985 0.6334848148292,0.9668782649151 0.062435116155,0.095364604836 0.1028366784148,0.2057237077296 0.166701760133,0.3000812945633 1.9767259879966,2.9084492544447 4.490293273123,5.4267394540028 7.401713230675,7.4017233008551 0.8221597077766,-4.0298242213024 2.4356744426335,-7.5799151363964 4.6010753235774,-10.335740742383 -0.5940097091314,-0.516328340419 -1.1500044886687,-1.0733301379588 -1.6670478118695,-1.6670578820495 -0.01218491783,0.010070180025 -0.021046676252,0.023664923059 -0.033332295883,0.033231594082 -0.2039614262253,-0.2348365981817 -0.3762722766321,-0.4871248183467 -0.566790012524,-0.7334917726569 -0.077741789793,-0.099795484047 -0.1579306333313,-0.1986443711721 -0.2333864922582,-0.3000712243834 -0.316515828364,-0.4295838096841 -0.592237357447,-0.8736686786041 -0.8668713070873,-1.3336442916036 -0.2582598369198,-0.4325343724314 -0.5143243745941,-0.8770321187325 -0.7334917726569,-1.3336442916036 -0.048135460519,-0.098788466045 -0.087207759016,-0.200215319256 -0.1333795344305,-0.3000812945633 -0.2282003495452,-0.4999340873384 -0.4540644173247,-1.0094449158806 -0.6334848148292,-1.5336884177992 -0.00604210802,-0.019838254649 0.00604210801,-0.046826337116 0,-0.066664591765 -0.072303892579,-0.2139913255301 -0.1694509192798,-0.4158782946702 -0.2333864922581,-0.6334747446492 0.010070180025,-0.023262115858 0.02416843206,-0.043402475908 0.033231594082,-0.066664591765 -0.432332968831,-1.4743146363721 -0.7001594767744,-3.0199966385809 -0.7001594767744,-4.63440761946 0,-0.4853323263024 0.059313360347,-0.9590033841356 0.099996887648,-1.4336713897914 -1.5935455678674,-2.4226234893212 -5.0141943889208,-4.1629419310521 -10.4357678405708,-4.5010381552097 z m 39.542515482872,16.9039149618532 c -3.0557860583896,3.4880787465004 -7.5357171162669,5.7013431931029 -12.5362563410739,5.7013431931029 -0.4964900857699,0 -0.9815102364914,-0.02406773026 -1.466993615494,-0.066664591765 -2.4227241911214,1.5875034598524 -4.1573831916783,4.9930067301483 -4.5010482253897,10.4024355446882 1.9257406665303,0.425112649753 3.9156988710797,0.6668070405317 5.9680418408836,0.6668070405317 3.5805028587694,0 6.9963179934109,-0.6924557890553 10.1356966161875,-1.9337867403702 0.4728855837914,-0.187305348464 0.9413000076517,-0.3874300360997 1.4003290237288,-0.6001323785866 0.459018945897,-0.2127124126669 0.8888343697217,-0.4298758449049 1.3336342214236,-0.6668070405318 0.8895997034036,-0.4738724614339 1.7701865956849,-1.0032114744451 2.600613921262,-1.5670307838617 0.002014036,0.010674390826 -0.002014036,0.022657905056 0,0.033231594082 2.9104532202696,-1.9700998095402 5.393719333701,-4.4955398369161 7.3683708646125,-7.401713230675 -4.0163805309692,-0.8194206188098 -7.5503792983833,-2.4131877306378 -10.3023883061404,-4.5677430276949 z"
     id="path3018"
     style="fill:#ebebeb;fill-opacity:1;stroke:#000000;stroke-width:3;stroke-linecap:round;stroke-linejoin:round;stroke-miterlimit:4;stroke-dasharray:none" />
  <path
     d="m 150.0332317451351,40.7746262710403 c -8.8869741527342,0 -16.1037283868911,9.98461269825521 -16.1037283868911,22.30518088846484 0,12.32055711301162 7.2167542341569,22.3385202334734 16.1037283868911,22.3385202334734 4.2124469360548,0 8.0313210261946,-2.25475560234131 10.9025206847269,-5.93471055201906 -1.7841136546595,-1.5495278039604 -3.909787675405,-2.71773212898816 -6.2347706992043,-3.40078941902618 -0.8067926130585,0.32999476432745 -1.6375723949365,0.50011535057885 -2.5339191189568,0.50011535057885 -4.5125987218783,0 -8.1685574395746,-4.24708634130461 -8.1685574395746,-13.46979324694443 0,-9.22270791265785 3.6559587176963,-13.46979526098044 8.1685574395746,-13.46979526098044 0.8564285304016,0 1.6583270359679,0.165927363289 2.4339020909491,0.46677399153426 2.3606918821678,-0.67981267803399 4.4982889960628,-1.8630840064151 6.3014554313296,-3.43413077807076 -2.8680174816445,-3.65003543780562 -6.670970617165,-5.90137120701047 -10.8691883888445,-5.90137120701047 z m 15.4702737826019,16.23710490026743 c -1.6608345107941,1.12769803289545 -3.443065041789,2.08470651436811 -5.3345771664145,2.83399235737618 0.1087780846295,1.01214473114522 0.166711830313,2.09013333438349 0.166711830313,3.26742599688381 0,1.17729165548232 -0.057903535143,2.2886185967112 -0.166711830313,3.30076534189244 1.8773131707904,0.74379054576846 3.6844875377069,1.6506736991489 5.3345771664145,2.76731064630498 0.3950934430987,-1.93536675161619 0.6334646744691,-3.99241450952775 0.6334646744691,-6.10141835426001 0,-2.11759773636554 -0.2352595457427,-4.12732571833989 -0.6334646744691,-6.0680759881974 z"
     id="path3042"
     style="fill:#ebebeb;fill-opacity:1;stroke:#000000;stroke-width:3;stroke-linecap:round;stroke-linejoin:round;stroke-miterlimit:4;stroke-dasharray:none" />
  <path
     d="m 150.0197477740817,156.6384390012961 c -8.8869842229143,0 -16.1037384570711,9.9846237754532 -16.1037384570711,22.3051869305729 0,12.3205430147595 7.2167542341568,22.3385292966354 16.1037384570711,22.3385292966354 4.2124267956947,0 8.0313008858345,-2.2547737286654 10.9025206847269,-5.9347296853611 -1.7841237248395,-1.5495388811584 -3.9097977455851,-2.7177301149522 -6.2347706992043,-3.4007803558642 -0.8068026832386,0.3299897292374 -1.6376026054766,0.5001052803989 -2.5339191189568,0.5001052803989 -4.5125987218783,0 -8.1685675097546,-4.2470782851606 -8.1685675097546,-13.4697821697465 0,-9.2227038845858 3.6559687878764,-13.4697922399264 8.1685675097546,-13.4697922399264 0.8564083900414,0 1.6583068956079,0.165926356271 2.4338920207691,0.4667729845163 2.3607019523477,-0.679817713124 4.4982889960628,-1.8630940765952 6.3014655015097,-3.4341327921068 -2.8680376220046,-3.6500273816617 -6.671000827705,-5.9013772491185 -10.8691883888444,-5.9013772491185 z m 15.4702637124218,16.2370978511414 c -1.6608546511541,1.1277091100935 -3.4430751119689,2.0847185985841 -5.3345973067745,2.8340004135202 0.1087881548096,1.0121437241272 0.166721900493,2.0901464256175 0.166721900493,3.2674310319738 0,1.1772745361763 -0.057903535143,2.2886196037293 -0.166721900493,3.3007532576764 1.8773232409704,0.7437834966425 3.684507678067,1.650673699149 5.3345973067745,2.767305611215 0.3951135834587,-1.9353476182741 0.6334848148293,-3.9924135025097 0.6334848148293,-6.1014012349539 0,-2.1176078065456 -0.2352696159228,-4.127343844664 -0.6334848148293,-6.0680890794315 z"
     id="path3127"
     style="fill:#ebebeb;fill-opacity:1;stroke:#000000;stroke-width:3;stroke-linecap:round;stroke-linejoin:round;stroke-miterlimit:4;stroke-dasharray:none" />
  <path
     d="m 150.0197477740817,98.71377662016911 c 8.8869640825541,0 16.1037485272511,9.98462377545329 16.1037485272511,22.30517686039289 0,12.3205732252996 -7.216784444697,22.3385292966354 -16.1037485272511,22.3385292966354 -4.2124368658748,0 -8.0313109560146,-2.2547435181253 -10.902530754907,-5.9347296853611 1.7841035844794,-1.5495086706183 3.909797745585,-2.7177099745921 6.2347807693843,-3.4007702856841 0.8067926130586,0.3299897292374 1.6375824651165,0.5001153505788 2.5339191189569,0.5001153505788 4.5125785815182,0 8.1685574395745,-4.2470883553406 8.1685574395745,-13.4698123802865 0,-9.2226837442257 -3.6559788580563,-13.4697821697464 -8.1685574395745,-13.4697821697464 -0.8564285304015,0 -1.6583270359679,0.1659364264511 -2.4339020909491,0.4667729845163 -2.3607019523478,-0.679807642944 -4.4982889960629,-1.8630840064151 -6.3014755716896,-3.4341227219268 2.8680376220045,-3.6500374518416 6.6710108978849,-5.90137724911851 10.8692085292044,-5.90137724911851 z m -15.4702637124219,16.23710792132148 c 1.6608345107941,1.1276788995534 3.4430650417889,2.0847185985841 5.3345771664145,2.8340004135202 -0.1087881548096,1.0121437241272 -0.1667017601329,2.0901262852575 -0.1667017601329,3.2674008214337 0,1.1773047467164 0.057903535143,2.2886296739093 0.1667017601329,3.3007834682165 -1.8773131707903,0.7437935668225 -3.6844875377069,1.650683769329 -5.3345771664145,2.767305611215 -0.3951035132787,-1.9353677586342 -0.6334747446492,-3.9924135025097 -0.6334747446492,-6.101421375314 0,-2.1175876661856 0.2352696159228,-4.127323704304 0.6334747446492,-6.0680689390714 z"
     id="path3135"
     style="fill:#ebebeb;fill-opacity:1;stroke:#000000;stroke-width:3;stroke-linecap:round;stroke-linejoin:round;stroke-miterlimit:4;stroke-dasharray:none" />
  <path
     d="m 150.01907307202,214.565095278068 c 8.8869942930942,0 16.1037384570711,9.9846036350931 16.1037384570711,22.3051869305728 0,12.3205430147596 -7.2167441639769,22.3385091562754 -16.1037384570711,22.3385091562754 -4.2124267956947,0 -8.0312908156546,-2.2547535883052 -10.9025106145469,-5.934709545001 1.7841136546595,-1.5495288109783 3.9097977455851,-2.7177200447721 6.2347807693843,-3.4007803558642 0.8067926130586,0.3299897292374 1.6375723949365,0.5001052803989 2.5339191189569,0.5001052803989 4.5125785815182,0 8.1685574395745,-4.2470883553406 8.1685574395745,-13.4697821697465 0,-9.2227240249458 -3.6559788580563,-13.4698023101064 -8.1685574395745,-13.4698023101064 -0.8564386005815,0 -1.6583270359679,0.165916286091 -2.4339020909491,0.4667729845162 -2.3607019523478,-0.679827783304 -4.4983091364229,-1.8630940765951 -6.3014655015096,-3.4341428622868 2.8680174816444,-3.6500173114816 6.6709907575249,-5.9013571087584 10.8691783186644,-5.9013571087584 z m -15.4702536422418,16.2371079213214 c 1.6608345107941,1.1276990399135 3.4430650417889,2.0846984582241 5.3345771664144,2.8339802731602 -0.1087780846294,1.0121537943072 -0.1667017601329,2.0901162150774 -0.1667017601329,3.2674411021538 0,1.1772745361763 0.057903535143,2.2885994633692 0.1667017601329,3.3007431874964 -1.8773031006103,0.7438036370025 -3.6844774675269,1.650693839509 -5.3345771664144,2.767325751575 -0.3951035132788,-1.9353677586341 -0.6334747446492,-3.9924135025097 -0.6334747446492,-6.1014113051339 0,-2.1176078065455 0.2352595457427,-4.127333774484 0.6334747446492,-6.0680790092515 z"
     id="path3143"
     style="fill:#ebebeb;fill-opacity:1;stroke:#000000;stroke-width:3;stroke-linecap:round;stroke-linejoin:round;stroke-miterlimit:4;stroke-dasharray:none" />
  <path
     d="m 40.79842920591618,150.0363786260419 c 0,8.8869942930943 9.98461169123718,16.1037384570711 22.30517786741085,16.1037384570711 12.32055610599359,0 22.3385162054014,-7.2167441639768 22.3385162054014,-16.1037384570711 0,-4.2124267956947 -2.25475056725131,-8.0312908156545 -5.93470954500103,-10.9025206847269 -1.54952578992439,1.7841237248395 -2.71773112197019,3.9098078157651 -3.40079042604421,6.2347908395643 0.32999577134544,0.8067926130586 0.50011736461485,1.6375723949365 0.50011736461485,2.5339191189569 0,4.5125886516983 -4.24708734832258,8.1685473693945 -13.46979324694441,8.1685473693945 -9.22270589862183,0 -13.46979324694444,-3.6559587176963 -13.46979324694444,-8.1685473693945 0,-0.8564386005815 0.16592837030703,-1.6583270359679 0.46677499855226,-2.4339020909491 -0.67981066399797,-2.3607120225278 -1.8630840064151,-4.4982990662429 -3.43412977105278,-6.3014655015096 -3.65003644482362,2.8680174816445 -5.90137019999246,6.6709806873449 -5.90137019999246,10.8691783186644 z m 16.23710288623143,-15.4702536422418 c 1.12769601885944,1.6608345107941 2.08470953542209,3.4430650417889 2.83398933632214,5.3345771664145 1.01214775219924,-0.1087780846295 2.09013434140153,-0.166711830313 3.26742599688383,-0.166711830313 1.17729165548228,0 2.28861859671119,0.057903535143 3.30076634891036,0.166711830313 0.74379155278649,-1.8773031006104 1.65067369914895,-3.684477467527 2.76730863226899,-5.3345771664145 -1.93536373056212,-0.3951135834588 -3.99241249549171,-0.6334848148292 -6.10141533320594,-0.6334848148292 -2.11759773636557,0 -4.12732773237596,0.2352595457427 -6.06807498117943,0.6334848148292 z"
     id="path3151"
     style="fill:#ebebeb;fill-opacity:1;stroke:#000000;stroke-width:3;stroke-linecap:round;stroke-linejoin:round;stroke-miterlimit:4;stroke-dasharray:none" />
  <path
     d="m 98.73160290320021,149.9980112401469 c 0,-8.8869942930943 9.98460665614719,-16.1037485272511 22.30517988144689,-16.1037485272511 12.3205530849396,0 22.3384990860953,7.2167542341568 22.3384990860953,16.1037485272511 0,4.2124167255147 -2.2547334479452,8.0312908156545 -5.934689404641,10.9025206847269 -1.5495288109783,-1.7841337950195 -2.7177401851321,-3.9098078157651 -3.4008004962242,-6.2347908395644 0.3300098695975,-0.8067926130585 0.5001254207589,-1.6375824651165 0.5001254207589,-2.5339090487768 0,-4.5125886516983 -4.2470984255206,-8.1685775799346 -13.4697922399265,-8.1685775799346 -9.2227139547658,0 -13.4698123802864,3.6559889282363 -13.4698123802864,8.1685775799346 0,0.8564184602215 0.165936426451,1.6583068956079 0.4667931248763,2.4338920207691 -0.6798277833041,2.3606918821677 -1.8630840064151,4.4982990662429 -3.4341428622869,6.3014655015096 -3.6500132834095,-2.8680275518245 -5.90136012981239,-6.670990757525 -5.90136012981239,-10.8691783186644 z m 16.23710087219538,15.4702435720618 c 1.1277091100935,-1.6608244406141 2.0847085284041,-3.4430549716089 2.8339903433402,-5.3345670962344 1.0121437241272,0.1087881548095 2.0901363554375,0.1667118303129 3.2674310319738,0.1667118303129 1.1772846063563,0 2.2886095335492,-0.057903535143 3.3007532576764,-0.1667118303129 0.7437935668225,1.8773031006103 1.650683769329,3.6844774675269 2.767315681395,5.3345670962344 -1.9353576884541,0.3951236536387 -3.9924135025097,0.6334848148292 -6.101411305134,0.6334848148292 -2.1175977363655,0 -4.1273237043039,-0.2352696159228 -6.0680790092514,-0.6334848148292 z"
     id="path3159"
     style="fill:#e2e2e2;fill-opacity:1;stroke:#000000;stroke-width:3;stroke-linecap:round;stroke-linejoin:round;stroke-miterlimit:4;stroke-dasharray:none" />
  <path
     d="m 98.73160290320021,149.9980112401469 c 0,-8.8869942930943 9.98460665614719,-16.1037485272511 22.30517988144689,-16.1037485272511 12.3205530849396,0 22.3384990860953,7.2167542341568 22.3384990860953,16.1037485272511 0,4.2124167255147 -2.2547334479452,8.0312908156545 -5.934689404641,10.9025206847269 -1.5495288109783,-1.7841337950195 -2.7177401851321,-3.9098078157651 -3.4008004962242,-6.2347908395644 0.3300098695975,-0.8067926130585 0.5001254207589,-1.6375824651165 0.5001254207589,-2.5339090487768 0,-4.5125886516983 -4.2470984255206,-8.1685775799346 -13.4697922399265,-8.1685775799346 -9.2227139547658,0 -13.4698123802864,3.6559889282363 -13.4698123802864,8.1685775799346 0,0.8564184602215 0.165936426451,1.6583068956079 0.4667931248763,2.4338920207691 -0.6798277833041,2.3606918821677 -1.8630840064151,4.4982990662429 -3.4341428622869,6.3014655015096 -3.6500132834095,-2.8680275518245 -5.90136012981239,-6.670990757525 -5.90136012981239,-10.8691783186644 z m 16.23710087219538,15.4702435720618 c 1.1277091100935,-1.6608244406141 2.0847085284041,-3.4430549716089 2.8339903433402,-5.3345670962344 1.0121437241272,0.1087881548095 2.0901363554375,0.1667118303129 3.2674310319738,0.1667118303129 1.1772846063563,0 2.2886095335492,-0.057903535143 3.3007532576764,-0.1667118303129 0.7437935668225,1.8773031006103 1.650683769329,3.6844774675269 2.767315681395,5.3345670962344 -1.9353576884541,0.3951236536387 -3.9924135025097,0.6334848148292 -6.101411305134,0.6334848148292 -2.1175977363655,0 -4.1273237043039,-0.2352696159228 -6.0680790092514,-0.6334848148292 z"
     id="path3163"
     style="fill:#e2e2e2;fill-opacity:1;stroke:#000000;stroke-width:3;stroke-linecap:round;stroke-linejoin:round;stroke-miterlimit:4;stroke-dasharray:none" />
  <path
     d="m 98.73160290320021,149.9980112401469 c 0,-8.8869942930943 9.98460665614719,-16.1037485272511 22.30517988144689,-16.1037485272511 12.3205530849396,0 22.3384990860953,7.2167542341568 22.3384990860953,16.1037485272511 0,4.2124167255147 -2.2547334479452,8.0312908156545 -5.934689404641,10.9025206847269 -1.5495288109783,-1.7841337950195 -2.7177401851321,-3.9098078157651 -3.4008004962242,-6.2347908395644 0.3300098695975,-0.8067926130585 0.5001254207589,-1.6375824651165 0.5001254207589,-2.5339090487768 0,-4.5125886516983 -4.2470984255206,-8.1685775799346 -13.4697922399265,-8.1685775799346 -9.2227139547658,0 -13.4698123802864,3.6559889282363 -13.4698123802864,8.1685775799346 0,0.8564184602215 0.165936426451,1.6583068956079 0.4667931248763,2.4338920207691 -0.6798277833041,2.3606918821677 -1.8630840064151,4.4982990662429 -3.4341428622869,6.3014655015096 -3.6500132834095,-2.8680275518245 -5.90136012981239,-6.670990757525 -5.90136012981239,-10.8691783186644 z m 16.23710087219538,15.4702435720618 c 1.1277091100935,-1.6608244406141 2.0847085284041,-3.4430549716089 2.8339903433402,-5.3345670962344 1.0121437241272,0.1087881548095 2.0901363554375,0.1667118303129 3.2674310319738,0.1667118303129 1.1772846063563,0 2.2886095335492,-0.057903535143 3.3007532576764,-0.1667118303129 0.7437935668225,1.8773031006103 1.650683769329,3.6844774675269 2.767315681395,5.3345670962344 -1.9353576884541,0.3951236536387 -3.9924135025097,0.6334848148292 -6.101411305134,0.6334848148292 -2.1175977363655,0 -4.1273237043039,-0.2352696159228 -6.0680790092514,-0.6334848148292 z"
     id="path3167"
     style="fill:#ebebeb;fill-opacity:1;stroke:#000000;stroke-width:3;stroke-linecap:round;stroke-linejoin:round;stroke-miterlimit:4;stroke-dasharray:none" />
  <path
     d="m 156.6450098441133,150.0363786260419 c 0,8.8869942930943 9.9846137052732,16.1037384570711 22.3051869305729,16.1037384570711 12.3205430147595,0 22.3385091562754,-7.2167441639768 22.3385091562754,-16.1037384570711 0,-4.2124267956947 -2.2547435181253,-8.0312908156545 -5.9347095450011,-10.9025206847269 -1.5495187407984,1.7841237248395 -2.7177301149522,3.9098078157651 -3.4007904260442,6.2347908395643 0.3299997994175,0.8067926130586 0.5001153505789,1.6375723949365 0.5001153505789,2.5339191189569 0,4.5125886516983 -4.2470883553406,8.1685473693945 -13.4697922399265,8.1685473693945 -9.2227038845858,0 -13.4698023101064,-3.6559587176963 -13.4698023101064,-8.1685473693945 0,-0.8564386005815 0.165936426451,-1.6583270359679 0.4667931248763,-2.4339020909491 -0.679807642944,-2.3607120225278 -1.8630840064151,-4.4982990662429 -3.4341327921068,-6.3014655015096 -3.6500374518416,2.8680174816445 -5.9013772491185,6.6709806873449 -5.9013772491185,10.8691783186644 z m 16.2371079213214,-15.4702536422418 c 1.1276889697335,1.6608345107941 2.0847085284041,3.4430650417889 2.8339903433402,5.3345771664145 1.0121537943072,-0.1087780846295 2.0901363554376,-0.166711830313 3.2674209617939,-0.166711830313 1.1772946765364,0 2.2886196037292,0.057903535143 3.3007733980364,0.166711830313 0.7437734264624,-1.8773031006103 1.6506636289689,-3.684477467527 2.767295541035,-5.3345771664145 -1.9353576884542,-0.3951135834588 -3.9924034323298,-0.6334848148292 -6.101401234954,-0.6334848148292 -2.1176078065455,0 -4.1273237043038,0.2352595457427 -6.0680790092514,0.6334848148292 z"
     id="path3177"
     style="fill:#ebebeb;fill-opacity:1;stroke:#000000;stroke-width:3;stroke-linecap:round;stroke-linejoin:round;stroke-miterlimit:4;stroke-dasharray:none" />
  <path
     d="m 214.5576585004705,150.076760047942 c 0,-8.8869640825542 9.9846036350932,-16.1037384570711 22.3051667902128,-16.1037384570711 12.3205631551196,0 22.3385292966354,7.2167743745169 22.3385292966354,16.1037384570711 0,4.2124469360547 -2.2547535883053,8.0313109560146 -5.934709545001,10.902550895267 -1.5495288109784,-1.7841337950195 -2.7177301149522,-3.9098078157651 -3.4007904260442,-6.2347908395644 0.3299897292374,-0.8068026832385 0.5001153505788,-1.6375925352965 0.5001153505788,-2.5339191189568 0,-4.5125886516983 -4.2470984255206,-8.1685675097546 -13.4698023101064,-8.1685675097546 -9.2227038845859,0 -13.4697821697465,3.6559788580564 -13.4697821697465,8.1685675097546 0,0.8564184602214 0.165916286091,1.6583068956078 0.4667629143363,2.433892020769 -0.679817713124,2.3607019523478 -1.8630840064151,4.498299066243 -3.4341227219268,6.3014755716898 -3.6500273816616,-2.8680376220045 -5.9013671789384,-6.6709907575251 -5.9013671789384,-10.8692085292045 z m 16.2370877809614,15.4702737826018 c 1.1276990399135,-1.6608445809741 2.0847185985841,-3.4430650417889 2.8340004135201,-5.3345872365944 1.0121437241273,0.1087982249895 2.0901464256176,0.1667118303129 3.2674209617939,0.1667118303129 1.1773047467163,0 2.2886196037292,-0.057903535143 3.3007733980364,-0.1667118303129 0.7437834966425,1.8773131707903 1.650673699149,3.6844976078869 2.767305611215,5.3345872365944 -1.9353576884541,0.3951035132787 -3.9924135025097,0.6334848148293 -6.101421375314,0.6334848148293 -2.1175876661855,0 -4.1273237043039,-0.2352696159228 -6.0680790092514,-0.6334848148293 z"
     id="path3185"
     style="fill:#ebebeb;fill-opacity:1;stroke:#000000;stroke-width:3;stroke-linecap:round;stroke-linejoin:round;stroke-miterlimit:4;stroke-dasharray:none" />
</svg>
